<?xml version="1.0" encoding="UTF-8"?>
<svg width="16px" height="16px" viewBox="0 0 16 16" version="1.1" xmlns="http://www.w3.org/2000/svg" xmlns:xlink="http://www.w3.org/1999/xlink">
    <!-- Generator: Sketch 63.1 (92452) - https://sketch.com -->
    <title>account-icon</title>
    <desc>Created with Sketch.</desc>
    <g id="Page-1" stroke="none" stroke-width="1" fill="none" fill-rule="evenodd">
        <path d="M6.72027258,9.18689458 C7.57252405,9.55300796 8.41535837,9.55531056 9.2723184,9.19610498 C9.42063841,9.13393478 9.64664985,9.12472438 9.78319843,9.19149978 C10.5930727,9.59445476 11.3958842,10.0089227 12.1822157,10.4533245 C12.8908557,10.8539769 13.15689,11.5263361 12.90969,12.1618536 C12.6978043,12.7052672 12.2551985,12.9907896 11.5818728,12.9953948 C10.3764785,13.0023026 9.16872983,13 7.96333549,12.9976974 C6.78854687,12.9976974 5.61140397,13 4.43661535,12.9953948 C3.7468096,12.9930922 3.27595244,12.6868464 3.08054672,12.1342224 C2.88749528,11.5885063 3.03581529,10.9714095 3.58671817,10.6306247 C4.47192963,10.0849085 5.4065811,9.61517816 6.33181542,9.13163218 C6.42598686,9.08327758 6.60255829,9.13393478 6.72027258,9.18689458 Z M8.33060408,3.02053207 C9.30292412,3.14256986 9.94328986,3.72512764 10.3529356,4.563274 C10.9297356,5.74450774 10.6895985,7.22507947 9.78319843,8.11388303 C9.09574697,8.7862422 8.26939265,9.05104119 7.33003261,8.7747292 C6.26824971,8.46387821 5.69615825,7.68790205 5.43012396,6.6724555 C5.36891253,6.43528771 5.35478681,6.18660692 5.33830379,6.06917433 C5.33595253,4.16722681 6.70850115,2.81560068 8.33060408,3.02053207 Z" id="Combined-Shape" fill="#FFFFFF" fill-rule="nonzero"></path>
    </g>
</svg>