<?xml version="1.0" encoding="UTF-8"?>
<svg width="16px" height="16px" viewBox="0 0 16 16" version="1.1" xmlns="http://www.w3.org/2000/svg" xmlns:xlink="http://www.w3.org/1999/xlink">
    <!-- Generator: Sketch 63.1 (92452) - https://sketch.com -->
    <title>add-icon</title>
    <desc>Created with Sketch.</desc>
    <g id="Page-1" stroke="none" stroke-width="1" fill="none" fill-rule="evenodd">
        <path d="M8,3 C7.48860779,3 7.07407106,3.41455525 7.07407106,3.92592524 L7.07407106,7.0740655 L3.92592524,7.0740655 C3.41455525,7.0740655 3,7.48860223 3,7.99998519 C3,8.5113737 3.41455525,8.92591043 3.92592524,8.92591043 L7.07407106,8.92591043 L7.07407106,12.0740748 C7.07407106,12.5854448 7.48860779,13 8,13 C8.51138481,13 8.92592154,12.5854448 8.92592154,12.0740748 L8.92592154,8.92591043 L12.0740672,8.92591043 C12.5854368,8.92591043 13,8.5113737 13,7.99998519 C13,7.48860223 12.5854366,7.0740655 12.0740672,7.0740655 L8.92592154,7.0740655 L8.92592154,3.92592524 C8.92592154,3.41455525 8.51138481,3 8,3 L8,3 Z" id="Path" fill="#FFFFFF" fill-rule="nonzero"></path>
    </g>
</svg>