<?xml version="1.0" encoding="UTF-8"?>
<svg width="16px" height="16px" viewBox="0 0 16 16" version="1.1" xmlns="http://www.w3.org/2000/svg" xmlns:xlink="http://www.w3.org/1999/xlink">
    <!-- Generator: Sketch 62 (91390) - https://sketch.com -->
    <title>branch-inline-readonly-icon</title>
    <desc>Created with Sketch.</desc>
    <g id="Page-1" stroke="none" stroke-width="1" fill="none" fill-rule="evenodd">
        <path d="M6.76209286,11.4769494 L10.0310916,5.45278036 C10.2059989,5.13045819 10.5433016,4.92972973 10.9100224,4.92972973 L12.5351351,4.92972973 C12.7918729,4.92972973 13,4.72160264 13,4.46486486 C13,4.20812709 12.7918729,4 12.5351351,4 L10.1170558,4 C9.75021965,4 9.41283011,4.20085362 9.2379716,4.52333348 L5.97471935,10.5415314 C5.79986084,10.8640112 5.4624713,11.0648649 5.09563515,11.0648649 L3.46756757,11.0648649 C3.20933713,11.0648649 3,11.274202 3,11.5324324 C3,11.7906629 3.20933713,12 3.46756757,12 L5.88316209,12 C6.24988286,12 6.58718562,11.7992715 6.76209286,11.4769494 Z M13,11.5324324 C13,11.274202 12.7906629,11.0648649 12.5324324,11.0648649 L9.41351351,11.0648649 C9.15528308,11.0648649 8.94594595,11.274202 8.94594595,11.5324324 C8.94594595,11.7906629 9.15528308,12 9.41351351,12 L12.5324324,12 C12.7906629,12 13,11.7906629 13,11.5324324 Z" id="⎇" fill="#FFFFFF" fill-rule="nonzero" opacity="0.35"></path>
        <path d="M13,8 C11.7580175,8 10.7434402,9.01457726 10.7434402,10.2565598 L10.7434402,10.9037901 C10.3323615,10.9037901 10,11.2361516 10,11.6472303 L10,14.5947522 C10,15.0058309 10.3323615,15.3381924 10.7434402,15.3381924 L15.2565598,15.3381924 C15.6676385,15.3381924 16,15.0058309 16,14.5947522 L16,11.6472303 C16,11.2361516 15.6676385,10.9037901 15.2565598,10.9037901 L15.2565598,10.2565598 C15.2565598,9.01457726 14.2419825,8 13,8 Z M14.4693878,10.9037901 L11.5306122,10.9037901 L11.5306122,10.2565598 C11.5306122,9.45189504 12.1865889,8.78717201 13,8.78717201 C13.8134111,8.78717201 14.4693878,9.45189504 14.4693878,10.2565598 L14.4693878,10.9037901 Z" id="Shape" fill="#78E762" fill-rule="nonzero"></path>
    </g>
</svg>