<?xml version="1.0" encoding="UTF-8"?>
<svg width="16px" height="16px" viewBox="0 0 16 16" version="1.1" xmlns="http://www.w3.org/2000/svg" xmlns:xlink="http://www.w3.org/1999/xlink">
    <!-- Generator: Sketch 62 (91390) - https://sketch.com -->
    <title>branch-running-readonly-icon</title>
    <desc>Created with Sketch.</desc>
    <g id="Page-1" stroke="none" stroke-width="1" fill="none" fill-rule="evenodd">
        <path d="M11.878646,7.46284005 L6.40492166,12.8791673 C6.32546051,12.9571568 6.21788996,13.0006333 6.1059721,13 C6.02713987,13.0002433 5.9498199,12.9785898 5.88281256,12.9374969 C5.71656134,12.8354034 5.6432928,12.6334384 5.70596916,12.4500275 L6.7838718,9.25022803 L4.42174922,9.25022803 C4.25729706,9.2506307 4.10765812,9.15625652 4.03858851,9.00857651 C3.96971721,8.86054093 3.99439366,8.68636137 4.10174687,8.56277112 L8.73335979,3.1464439 C8.85801595,3.00168081 9.06591973,2.9588217 9.23862665,3.04228376 C9.41480902,3.12663395 9.50902208,3.31998982 9.46599674,3.50892119 L8.73757034,6.7503847 L11.5796965,6.7503847 C11.7496774,6.75122429 11.9024763,6.85311764 11.9670677,7.00870185 C12.0330037,7.16385758 11.9981183,7.3430306 11.878646,7.46284005 Z" id="Path" fill="#E9831E" fill-rule="nonzero"></path>
        <path d="M13,8 C11.7580175,8 10.7434402,9.01457726 10.7434402,10.2565598 L10.7434402,10.9037901 C10.3323615,10.9037901 10,11.2361516 10,11.6472303 L10,14.5947522 C10,15.0058309 10.3323615,15.3381924 10.7434402,15.3381924 L15.2565598,15.3381924 C15.6676385,15.3381924 16,15.0058309 16,14.5947522 L16,11.6472303 C16,11.2361516 15.6676385,10.9037901 15.2565598,10.9037901 L15.2565598,10.2565598 C15.2565598,9.01457726 14.2419825,8 13,8 Z M14.4693878,10.9037901 L11.5306122,10.9037901 L11.5306122,10.2565598 C11.5306122,9.45189504 12.1865889,8.78717201 13,8.78717201 C13.8134111,8.78717201 14.4693878,9.45189504 14.4693878,10.2565598 L14.4693878,10.9037901 Z" id="Shape" fill="#78E762" fill-rule="nonzero"></path>
    </g>
</svg>