<?xml version="1.0" encoding="UTF-8"?>
<svg width="16px" height="16px" viewBox="0 0 16 16" version="1.1" xmlns="http://www.w3.org/2000/svg" xmlns:xlink="http://www.w3.org/1999/xlink">
    <!-- Generator: Sketch 62 (91390) - https://sketch.com -->
    <title>branch-icon</title>
    <desc>Created with Sketch.</desc>
    <g id="Page-1" stroke="none" stroke-width="1" fill="none" fill-rule="evenodd">
        <path d="M11.9846491,3.58004386 C11.9846491,2.70961257 11.2750365,2 10.4046053,2 C9.53417398,2 8.8245614,2.70961257 8.8245614,3.58004386 C8.8245614,4.22331871 9.21253655,4.77814327 9.76535088,5.02339181 L9.76535088,5.83150585 L7.98830409,7.60855263 L6.22331871,5.84356725 L6.22331871,5.02339181 C6.77412281,4.77613304 7.16008772,4.22331871 7.16008772,3.58205409 C7.16008772,2.71162281 6.45047515,2.00201023 5.58004386,2.00201023 C4.70961257,2.00201023 4,2.70961257 4,3.58004386 C4,4.22331871 4.38797515,4.77814327 4.94078947,5.02339181 L4.94078947,6.35416667 L4.96089181,6.35416667 L4.94078947,6.37426901 L7.35307018,8.78654971 L7.35307018,9.97660819 C6.79824561,10.2218567 6.4122807,10.7766813 6.4122807,11.4199561 C6.4122807,12.2903874 7.12189327,13 7.99232456,13 C8.86275585,13 9.57236842,12.2903874 9.57236842,11.4199561 C9.57236842,10.7786915 9.18640351,10.223867 8.63559942,9.97861842 L8.63559942,8.7744883 L11.0358187,6.37426901 L11.0157164,6.35416667 L11.0478801,6.35416667 L11.0478801,5.02138158 C11.5986842,4.77412281 11.9846491,4.22130848 11.9846491,3.58004386 Z M5.58004386,2.78399123 C6.01827485,2.78399123 6.37609649,3.14181287 6.37609649,3.58004386 C6.37609649,4.01827485 6.01827485,4.37609649 5.58004386,4.37609649 C5.14181287,4.37609649 4.78399123,4.01827485 4.78399123,3.58004386 C4.78399123,3.14181287 5.14181287,2.78399123 5.58004386,2.78399123 Z M7.99232456,12.2160088 C7.55409357,12.2160088 7.19627193,11.8581871 7.19627193,11.4199561 C7.19627193,10.9817251 7.55409357,10.6239035 7.99232456,10.6239035 C8.43055556,10.6239035 8.78837719,10.9817251 8.78837719,11.4199561 C8.78837719,11.8581871 8.43055556,12.2160088 7.99232456,12.2160088 Z M10.4046053,4.37609649 C9.96637427,4.37609649 9.60855263,4.01827485 9.60855263,3.58004386 C9.60855263,3.14181287 9.96637427,2.78399123 10.4046053,2.78399123 C10.8428363,2.78399123 11.2006579,3.14181287 11.2006579,3.58004386 C11.2006579,4.01827485 10.8428363,4.37609649 10.4046053,4.37609649 Z" id="Shape" fill="#FFFFFF" fill-rule="nonzero"></path>
    </g>
</svg>