<?xml version="1.0" encoding="UTF-8"?>
<svg width="16px" height="16px" viewBox="0 0 16 16" version="1.1" xmlns="http://www.w3.org/2000/svg" xmlns:xlink="http://www.w3.org/1999/xlink">
    <!-- Generator: Sketch 62 (91390) - https://sketch.com -->
    <title>branch-icon</title>
    <desc>Created with Sketch.</desc>
    <g id="Page-1" stroke="none" stroke-width="1" fill="none" fill-rule="evenodd">
        <path d="M12.7105263,3.72368421 C12.7105263,2.77412281 11.9364035,2 10.9868421,2 C10.0372807,2 9.26315789,2.77412281 9.26315789,3.72368421 C9.26315789,4.4254386 9.68640351,5.03070175 10.2894737,5.29824561 L10.2894737,6.17982456 L8.35087719,8.11842105 L6.4254386,6.19298246 L6.4254386,5.29824561 C7.02631579,5.02850877 7.44736842,4.4254386 7.44736842,3.72587719 C7.44736842,2.77631579 6.67324561,2.00219298 5.72368421,2.00219298 C4.77412281,2.00219298 4,2.77412281 4,3.72368421 C4,4.4254386 4.42324561,5.03070175 5.02631579,5.29824561 L5.02631579,6.75 L5.04824561,6.75 L5.02631579,6.77192982 L7.65789474,9.40350877 L7.65789474,10.7017544 C7.05263158,10.9692982 6.63157895,11.5745614 6.63157895,12.2763158 C6.63157895,13.2258772 7.40570175,14 8.35526316,14 C9.30482456,14 10.0789474,13.2258772 10.0789474,12.2763158 C10.0789474,11.5767544 9.65789474,10.9714912 9.05701754,10.7039474 L9.05701754,9.39035088 L11.6754386,6.77192982 L11.6535088,6.75 L11.6885965,6.75 L11.6885965,5.29605263 C12.2894737,5.02631579 12.7105263,4.42324561 12.7105263,3.72368421 Z M5.72368421,2.85526316 C6.20175439,2.85526316 6.59210526,3.24561404 6.59210526,3.72368421 C6.59210526,4.20175439 6.20175439,4.59210526 5.72368421,4.59210526 C5.24561404,4.59210526 4.85526316,4.20175439 4.85526316,3.72368421 C4.85526316,3.24561404 5.24561404,2.85526316 5.72368421,2.85526316 Z M8.35526316,13.1447368 C7.87719298,13.1447368 7.48684211,12.754386 7.48684211,12.2763158 C7.48684211,11.7982456 7.87719298,11.4078947 8.35526316,11.4078947 C8.83333333,11.4078947 9.22368421,11.7982456 9.22368421,12.2763158 C9.22368421,12.754386 8.83333333,13.1447368 8.35526316,13.1447368 Z M10.9868421,4.59210526 C10.5087719,4.59210526 10.1184211,4.20175439 10.1184211,3.72368421 C10.1184211,3.24561404 10.5087719,2.85526316 10.9868421,2.85526316 C11.4649123,2.85526316 11.8552632,3.24561404 11.8552632,3.72368421 C11.8552632,4.20175439 11.4649123,4.59210526 10.9868421,4.59210526 Z" id="Shape" fill="#FFFFFF" fill-rule="nonzero"></path>
    </g>
</svg>