<?xml version="1.0" encoding="UTF-8"?>
<svg width="16px" height="16px" viewBox="0 0 16 16" version="1.1" xmlns="http://www.w3.org/2000/svg" xmlns:xlink="http://www.w3.org/1999/xlink">
    <!-- Generator: Sketch 62 (91390) - https://sketch.com -->
    <title>connector-icon</title>
    <desc>Created with Sketch.</desc>
    <g id="Page-1" stroke="none" stroke-width="1" fill="none" fill-rule="evenodd">
        <path d="M11.7752617,4.47576409 L10.4225552,5.82927345 L9.17100055,4.57771883 L10.5237071,3.22481157 C10.804484,2.94443604 10.804484,2.49025578 10.5237071,2.21028165 C10.243733,1.92990612 9.78955272,1.92990612 9.50937789,2.21028165 L8.15626993,3.56318891 L7.22442771,2.63114599 C7.20495997,2.65021233 5.45246239,4.40250921 5.43279395,4.42237835 C4.10938934,5.74638505 4.02027929,7.8344502 5.16245334,9.26241863 L2.11846217,12.3060084 C1.96051261,12.4645601 1.96051261,12.7222567 2.11846217,12.8812097 C2.27741523,13.0399621 2.53571395,13.0399621 2.6944663,12.8812097 L5.73785537,9.83761996 C7.1664259,10.9791919 9.25429034,10.8896805 10.5780964,9.56687795 C10.5977648,9.54700882 12.3488575,7.79390914 12.3677231,7.77424071 L11.4366837,6.84380337 L12.7901931,5.49029402 C13.0699665,5.21072128 13.0699665,4.75654102 12.7901931,4.4755634 C12.5094161,4.19558926 12.0554366,4.19558926 11.7752617,4.47576409 Z" id="Combined-Shape" fill="#FFFFFF" fill-rule="nonzero"></path>
    </g>
</svg>