<?xml version="1.0" encoding="UTF-8"?>
<svg width="16px" height="16px" viewBox="0 0 16 16" version="1.1" xmlns="http://www.w3.org/2000/svg" xmlns:xlink="http://www.w3.org/1999/xlink">
    <!-- Generator: Sketch 62 (91390) - https://sketch.com -->
    <title>cross-icon</title>
    <desc>Created with Sketch.</desc>
    <g id="Page-1" stroke="none" stroke-width="1" fill="none" fill-rule="evenodd">
        <path d="M7.20734261,7.78343212 C7.32694975,7.90303925 7.32701661,8.09689389 7.20734261,8.21656788 L5.1188452,10.3050653 C4.96015308,10.4637574 4.96079342,10.7216885 5.11955246,10.8804475 L5.11955246,10.8804475 C5.27863518,11.0395303 5.53615486,11.0399346 5.69493471,10.8811548 L7.78343212,8.79265739 C7.90303925,8.67305025 8.09689389,8.67298339 8.21656788,8.79265739 L10.3050653,10.8811548 C10.4637574,11.0398469 10.7216885,11.0392066 10.8804475,10.8804475 L10.8804475,10.8804475 C11.0395303,10.7213648 11.0399346,10.4638451 10.8811548,10.3050653 L8.79265739,8.21656788 C8.67305025,8.09696075 8.67298339,7.90310611 8.79265739,7.78343212 L10.8811548,5.69493471 C11.0398469,5.53624258 11.0392066,5.27831148 10.8804475,5.11955246 L10.8804475,5.11955246 C10.7213648,4.96046973 10.4638451,4.96006536 10.3050653,5.1188452 L8.21656788,7.20734261 C8.09696075,7.32694975 7.90310611,7.32701661 7.78343212,7.20734261 L5.69493471,5.1188452 C5.53624258,4.96015308 5.27831148,4.96079342 5.11955246,5.11955246 L5.11955246,5.11955246 C4.96046973,5.27863518 4.96006536,5.53615486 5.1188452,5.69493471 L7.20734261,7.78343212 Z" id="Path" fill="#E91E63" fill-rule="nonzero"></path>
    </g>
</svg>