<?xml version="1.0" encoding="UTF-8"?>
<svg width="16px" height="16px" viewBox="0 0 16 16" version="1.1" xmlns="http://www.w3.org/2000/svg" xmlns:xlink="http://www.w3.org/1999/xlink">
    <!-- Generator: Sketch 62 (91390) - https://sketch.com -->
    <title>branch-running-icon</title>
    <desc>Created with Sketch.</desc>
    <g id="Page-1" stroke="none" stroke-width="1" fill="none" fill-rule="evenodd">
        <path d="M11.878646,7.46284005 L6.40492166,12.8791673 C6.32546051,12.9571568 6.21788996,13.0006333 6.1059721,13 C6.02713987,13.0002433 5.9498199,12.9785898 5.88281256,12.9374969 C5.71656134,12.8354034 5.6432928,12.6334384 5.70596916,12.4500275 L6.7838718,9.25022803 L4.42174922,9.25022803 C4.25729706,9.2506307 4.10765812,9.15625652 4.03858851,9.00857651 C3.96971721,8.86054093 3.99439366,8.68636137 4.10174687,8.56277112 L8.73335979,3.1464439 C8.85801595,3.00168081 9.06591973,2.9588217 9.23862665,3.04228376 C9.41480902,3.12663395 9.50902208,3.31998982 9.46599674,3.50892119 L8.73757034,6.7503847 L11.5796965,6.7503847 C11.7496774,6.75122429 11.9024763,6.85311764 11.9670677,7.00870185 C12.0330037,7.16385758 11.9981183,7.3430306 11.878646,7.46284005 Z" id="Path" fill="#FFFFFF" fill-rule="nonzero"></path>
    </g>
</svg>