<?xml version="1.0" encoding="UTF-8"?>
<svg width="16px" height="16px" viewBox="0 0 16 16" version="1.1" xmlns="http://www.w3.org/2000/svg" xmlns:xlink="http://www.w3.org/1999/xlink">
    <!-- Generator: Sketch 62 (91390) - https://sketch.com -->
    <title>github-connector-icon</title>
    <desc>Created with Sketch.</desc>
    <g id="Page-1" stroke="none" stroke-width="1" fill="none" fill-rule="evenodd">
        <path d="M13.1951403,4.98827489 C12.6586037,4.0689825 11.930826,3.34117744 11.0116157,2.80469552 C10.0922685,2.26818623 9.08861556,2 7.99994527,2 C6.9114118,2 5.90743046,2.26826832 4.98827489,2.80469552 C4.0689825,3.34115007 3.34123216,4.0689825 2.80469552,4.98827489 C2.26824096,5.90753992 2,6.91138444 2,7.99978109 C2,9.3071924 2.38144231,10.4828501 3.14451848,11.5270553 C3.90751255,12.5713426 4.89318794,13.2939486 6.10146256,13.6949556 C6.24210915,13.72106 6.34622594,13.7026994 6.41392237,13.6403388 C6.48164617,13.577896 6.51546702,13.4996922 6.51546702,13.4060555 C6.51546702,13.3904311 6.51412623,13.2498666 6.51152673,12.9841978 C6.50884514,12.718529 6.50758643,12.4867631 6.50758643,12.2890096 L6.32789263,12.3200941 C6.21332312,12.3410817 6.06879096,12.3499747 5.89429615,12.3474573 C5.71988343,12.345022 5.53882147,12.3267434 5.35135653,12.2927583 C5.1638095,12.2590743 4.98936942,12.1809525 4.82789947,12.0585571 C4.66651161,11.9361618 4.5519421,11.7759505 4.4842183,11.5781697 L4.40609651,11.3983938 C4.35402444,11.2787074 4.27204444,11.1457498 4.16004706,11.0000137 C4.04804969,10.8541407 3.93479361,10.7552503 3.8202241,10.7031782 L3.76552517,10.6640216 C3.72907745,10.6379992 3.6952566,10.6066137 3.66398052,10.5701933 C3.6327318,10.533773 3.60933631,10.4973253 3.59371195,10.4608228 C3.57806023,10.424293 3.59103036,10.3943304 3.63275916,10.3708254 C3.67448797,10.3473205 3.74990081,10.33591 3.85932605,10.33591 L4.01551491,10.3592508 C4.11968642,10.3801289 4.24853949,10.4424895 4.40223831,10.5467157 C4.55585503,10.6508599 4.68213597,10.7862528 4.78110848,10.9528396 C4.90095908,11.1664364 5.04535442,11.3291924 5.21470496,11.4411897 C5.38391868,11.5531871 5.55452792,11.60909 5.7263685,11.60909 C5.89820908,11.60909 6.04662681,11.5960652 6.1716764,11.5701523 C6.29658918,11.5441026 6.41378555,11.5049459 6.52321079,11.4529012 C6.57008387,11.1038021 6.6977056,10.8356159 6.90596653,10.6481509 C6.60913108,10.6169569 6.34225828,10.5699744 6.10521131,10.5075043 C5.86830116,10.4449522 5.62348306,10.3434349 5.37092118,10.2026789 C5.11822249,10.0621144 4.9085934,9.88756482 4.74197918,9.67933124 C4.57533759,9.47098822 4.43857657,9.19746617 4.33188765,8.85901137 C4.225144,8.52041975 4.17175849,8.12983815 4.17175849,7.68715711 C4.17175849,7.05684694 4.37752938,6.52047448 4.78898907,6.07773871 C4.59624304,5.60386368 4.61443953,5.07263548 4.84363328,4.48410885 C4.99467787,4.43718105 5.21867261,4.47239742 5.51550807,4.58953907 C5.81239824,4.70673544 6.02977111,4.80713084 6.16784556,4.89036954 C6.30592002,4.97358088 6.41654923,5.04409572 6.49989739,5.1012847 C6.98436196,4.9659192 7.48431407,4.89822276 7.99989055,4.89822276 C8.51546702,4.89822276 9.01552859,4.9659192 9.50002052,5.1012847 L9.79688334,4.91387449 C9.99989055,4.78882489 10.2396191,4.67422802 10.5154944,4.5700565 C10.7915338,4.46593972 11.0026132,4.43726314 11.1485135,4.48419094 C11.3827968,5.07274493 11.4036749,5.60394577 11.2108741,6.0778208 C11.6223064,6.52055657 11.8281594,7.05706585 11.8281594,7.68723919 C11.8281594,8.12992024 11.7745824,8.52173318 11.6680029,8.8629243 C11.5612866,9.20417014 11.423349,9.47741856 11.2541353,9.68324418 C11.08473,9.88904243 10.8737601,10.0622238 10.6211982,10.2027609 C10.3685816,10.3434075 10.1236814,10.4449248 9.88677129,10.507477 C9.64975168,10.5700291 9.38287888,10.617039 9.08604343,10.6482878 C9.35677443,10.882571 9.4921673,11.252384 9.4921673,11.7575625 L9.4921673,13.4058366 C9.4921673,13.4994733 9.52472945,13.5776498 9.58990847,13.6401199 C9.6550054,13.7024805 9.75780876,13.7208411 9.89845535,13.6947093 C11.1068941,13.2937571 12.0925695,12.5711237 12.8555362,11.5268364 C13.6184209,10.4826312 14,9.3069735 14,7.99956219 C13.9997264,6.91130235 13.7313486,5.90753992 13.1951403,4.98827489 Z" id="Path" fill="#FFFFFF" fill-rule="nonzero"></path>
    </g>
</svg>