<?xml version="1.0" encoding="UTF-8"?>
<svg width="16px" height="16px" viewBox="0 0 16 16" version="1.1" xmlns="http://www.w3.org/2000/svg" xmlns:xlink="http://www.w3.org/1999/xlink">
    <!-- Generator: Sketch 63.1 (92452) - https://sketch.com -->
    <title>hash-icon</title>
    <desc>Created with Sketch.</desc>
    <g id="Page-1" stroke="none" stroke-width="1" fill="none" fill-rule="evenodd">
        <path d="M12.1887043,6.58241358 C12.635642,6.58241358 12.9993856,6.2236507 13,5.7822923 C13,5.34057004 12.6358877,4.98095816 12.1887043,4.98095816 L11.2166732,4.98095816 L11.4286522,3.97537902 C11.4725226,3.76591874 11.4313557,3.55233475 11.3126475,3.37331716 C11.1936935,3.19442086 11.0115759,3.07216495 10.7993512,3.02850212 C10.7447896,3.01746513 10.6891221,3.01164342 10.6335775,3.01164342 C10.2518924,3.01164342 9.91813311,3.27956337 9.83960873,3.64924196 L9.5589363,4.98095816 L7.75570193,4.98156458 L7.96976996,3.96434203 C8.01425482,3.75488175 7.972965,3.54129776 7.85425678,3.3620376 C7.73542568,3.18338387 7.55293944,3.06064281 7.34096048,3.01722256 C7.28652182,3.00582171 7.23036276,3 7.17494101,3 C6.79288734,3 6.459128,3.26828381 6.38134094,3.63771983 L6.09833366,4.9814433 L4.41454483,4.9814433 C3.96760716,4.9814433 3.60374066,5.34044876 3.60374066,5.78217101 C3.60374066,6.22328684 3.96785293,6.5822923 4.41515926,6.5822923 L5.76064196,6.5822923 L5.21908179,9.15294118 L3.81080417,9.15294118 C3.3638665,9.15294118 3,9.51194663 3,9.95366889 C3,10.3947847 3.36398938,10.7539115 3.81129571,10.7539115 L4.88175875,10.7539115 L4.61349784,12.0248636 C4.52268482,12.4566404 4.80483189,12.8815039 5.24292175,12.9717404 C5.2973604,12.9827774 5.35315081,12.9885992 5.40857255,12.9885992 C5.79062623,12.9885992 6.12463134,12.7204366 6.2024184,12.3511219 L6.53875836,10.7540327 L8.34248427,10.7540327 L8.07213429,12.036507 C8.02826386,12.2457247 8.06918502,12.4595512 8.18789324,12.638205 C8.30684723,12.8172226 8.48921058,12.9395998 8.7015582,12.9831413 C8.75611974,12.9944209 8.81166437,13 8.86696323,13 C9.24926268,13 9.58326779,12.7319588 9.66117774,12.3625227 L9.99985254,10.7540327 L11.5847179,10.7540327 C12.0317784,10.7540327 12.395522,10.3951486 12.3960136,9.95379018 C12.3960136,9.51206792 12.0320242,9.15245603 11.5847179,9.15245603 L10.3375442,9.15245603 L10.8789815,6.58265616 L12.1887043,6.58265616 L12.1887043,6.58241358 Z M9.22136748,6.58241358 L8.68017597,9.15221346 L6.87645006,9.15294118 L7.41801022,6.58241358 L9.22136748,6.58241358 Z" id="Shape" fill="#FFFFFF" fill-rule="nonzero"></path>
    </g>
</svg>