<?xml version="1.0" encoding="UTF-8"?>
<svg width="16px" height="16px" viewBox="0 0 16 16" version="1.1" xmlns="http://www.w3.org/2000/svg" xmlns:xlink="http://www.w3.org/1999/xlink">
    <!-- Generator: Sketch 63.1 (92452) - https://sketch.com -->
    <title>issue-icon</title>
    <desc>Created with Sketch.</desc>
    <g id="Page-1" stroke="none" stroke-width="1" fill="none" fill-rule="evenodd">
        <path d="M8,13 C5.23857624,13 3,10.7614238 3,8 C3,5.23857624 5.23857624,3 8,3 C10.7614238,3 13,5.23857624 13,8 C13,10.7614238 10.7614238,13 8,13 Z M8,12.047619 C10.2354383,12.047619 12.047619,10.2354383 12.047619,8 C12.047619,5.76456171 10.2354383,3.95238095 8,3.95238095 C5.76456171,3.95238095 3.95238095,5.76456171 3.95238095,8 C3.95238095,10.2354383 5.76456171,12.047619 8,12.047619 Z M8.6029111,7.31291852 L8.6029111,10.4316406 C8.6029111,10.6477255 8.55756005,10.8111044 8.46685667,10.921782 C8.37615329,11.0324596 8.26103143,11.0877976 8.12148776,11.0877976 C7.98194405,11.0877976 7.86856652,11.031142 7.78135171,10.9178292 C7.6941369,10.8045164 7.65053014,10.6424552 7.65053014,10.4316406 L7.65053014,7.34454057 C7.65053014,7.13109081 7.6941369,6.97034714 7.78135171,6.86230467 C7.86856652,6.75426224 7.98194405,6.70024181 8.12148776,6.70024181 C8.26103143,6.70024181 8.37615329,6.75426224 8.46685667,6.86230467 C8.55756005,6.97034714 8.6029111,7.12055024 8.6029111,7.31291852 Z M8.06928943,6.19824219 C7.91908405,6.19824219 7.7906209,6.15212719 7.683896,6.05989581 C7.57717114,5.96766448 7.52380952,5.8372249 7.52380952,5.66857329 C7.52380952,5.51573276 7.57848871,5.38990471 7.68784876,5.29108538 C7.79720881,5.19226605 7.92435443,5.14285714 8.06928943,5.14285714 C8.20895405,5.14285714 8.33280576,5.18765457 8.44084819,5.27725076 C8.54889067,5.3668469 8.6029111,5.49728648 8.6029111,5.66857329 C8.6029111,5.83458976 8.55020824,5.96437052 8.44480095,6.05791948 C8.33939371,6.15146843 8.21422443,6.19824219 8.06928943,6.19824219 Z" id="Shape" fill="#FFFFFF" fill-rule="nonzero"></path>
    </g>
</svg>