<?xml version="1.0" encoding="UTF-8"?>
<svg width="16px" height="16px" viewBox="0 0 16 16" version="1.1" xmlns="http://www.w3.org/2000/svg" xmlns:xlink="http://www.w3.org/1999/xlink">
    <!-- Generator: Sketch 62 (91390) - https://sketch.com -->
    <title>open-icon</title>
    <desc>Created with Sketch.</desc>
    <g id="Page-1" stroke="none" stroke-width="1" fill="none" fill-rule="evenodd">
        <path d="M11.8627451,7.55294118 C11.9485294,7.46143791 12,7.33333333 12,7.22352941 C12,7.09542484 11.9485294,6.98562092 11.8627451,6.89411765 L10.2156863,5.1372549 C10.0441176,4.95424837 9.75245098,4.95424837 9.58088235,5.1372549 C9.40931373,5.32026144 9.40931373,5.63137255 9.58088235,5.81437908 L10.4558824,6.74771242 L9.47794118,6.74771242 C7.00735294,6.74771242 5,8.88888889 5,11.524183 C5,11.7803922 5.20588235,12 5.44607843,12 C5.68627451,12 5.89215686,11.7803922 5.89215686,11.524183 C5.92647059,9.40130719 7.52205882,7.69934641 9.49509804,7.69934641 L10.4730392,7.69934641 L9.59803922,8.63267974 C9.42647059,8.81568627 9.42647059,9.12679739 9.59803922,9.30980392 C9.76960784,9.49281046 10.0612745,9.49281046 10.2328431,9.30980392 L11.8627451,7.55294118 Z" id="Path" fill="#FFFFFF" fill-rule="nonzero"></path>
    </g>
</svg>