<?xml version="1.0" encoding="UTF-8"?>
<svg width="16px" height="16px" viewBox="0 0 16 16" version="1.1" xmlns="http://www.w3.org/2000/svg" xmlns:xlink="http://www.w3.org/1999/xlink">
    <!-- Generator: Sketch 63.1 (92452) - https://sketch.com -->
    <title>repo-icon</title>
    <desc>Created with Sketch.</desc>
    <g id="Page-1" stroke="none" stroke-width="1" fill="none" fill-rule="evenodd">
        <path d="M11.5234328,3 C12.1476567,3 12.5,3.42367164 12.5,4.04789552 L12.5,4.04789552 L12.5,12.3473731 C12.5,12.9714627 12.1475224,13.6119403 11.5234328,13.6119403 L11.5234328,13.6119403 L8.06716418,13.6119403 L8.06716418,15.0295075 L6.79816418,13.8937612 L5.64925373,15.0295075 L5.64925373,13.6119403 L4.80701493,13.6119403 C4.18279104,13.6119403 3.5,12.9714627 3.5,12.3473731 L3.5,12.3473731 L3.5,4.04789552 C3.5,3.42367164 4.18279104,3 4.80701493,3 L4.80701493,3 Z M11.6940299,11.3283582 L4.30597015,11.3283582 L4.30597015,12.3473731 C4.30597015,12.5554478 4.5989403,12.8059701 4.80701493,12.8059701 L4.80701493,12.8059701 L5.64925373,12.8059701 L5.64925373,12 L8.06716418,12 L8.06716418,12.8059701 L11.5234328,12.8059701 C11.7316418,12.8059701 11.6940299,12.5554478 11.6940299,12.3473731 L11.6940299,12.3473731 L11.6940299,11.3283582 Z M11.5234328,3.80597015 L4.97761194,3.80597015 L4.97761194,10.5223881 L11.6940299,10.5223881 L11.6940299,4.04789552 C11.6940299,3.8398209 11.7316418,3.80597015 11.5234328,3.80597015 L11.5234328,3.80597015 Z M6.32089552,8.97761194 C6.35783582,8.97761194 6.3880597,9.00783582 6.3880597,9.04477612 L6.3880597,9.04477612 L6.3880597,9.58208955 C6.3880597,9.61902985 6.35783582,9.64925373 6.32089552,9.64925373 L6.32089552,9.64925373 L5.78358209,9.64925373 C5.74664179,9.64925373 5.71641791,9.61902985 5.71641791,9.58208955 L5.71641791,9.58208955 L5.71641791,9.04477612 C5.71641791,9.00783582 5.74664179,8.97761194 5.78358209,8.97761194 L5.78358209,8.97761194 Z M6.32089552,7.5 C6.35783582,7.5 6.3880597,7.53022388 6.3880597,7.56716418 L6.3880597,7.56716418 L6.3880597,8.10447761 C6.3880597,8.14141791 6.35783582,8.17164179 6.32089552,8.17164179 L6.32089552,8.17164179 L5.78358209,8.17164179 C5.74664179,8.17164179 5.71641791,8.14141791 5.71641791,8.10447761 L5.71641791,8.10447761 L5.71641791,7.56716418 C5.71641791,7.53022388 5.74664179,7.5 5.78358209,7.5 L5.78358209,7.5 Z M6.32089552,6.02238806 C6.35783582,6.02238806 6.3880597,6.05261194 6.3880597,6.08955224 L6.3880597,6.08955224 L6.3880597,6.62686567 C6.3880597,6.66380597 6.35783582,6.69402985 6.32089552,6.69402985 L6.32089552,6.69402985 L5.78358209,6.69402985 C5.74664179,6.69402985 5.71641791,6.66380597 5.71641791,6.62686567 L5.71641791,6.62686567 L5.71641791,6.08955224 C5.71641791,6.05261194 5.74664179,6.02238806 5.78358209,6.02238806 L5.78358209,6.02238806 Z M6.32089552,4.54477612 C6.35783582,4.54477612 6.3880597,4.575 6.3880597,4.6119403 L6.3880597,4.6119403 L6.3880597,5.14925373 C6.3880597,5.18619403 6.35783582,5.21641791 6.32089552,5.21641791 L6.32089552,5.21641791 L5.78358209,5.21641791 C5.74664179,5.21641791 5.71641791,5.18619403 5.71641791,5.14925373 L5.71641791,5.14925373 L5.71641791,4.6119403 C5.71641791,4.575 5.74664179,4.54477612 5.78358209,4.54477612 L5.78358209,4.54477612 Z" id="Combined-Shape" fill="#FFFFFF" fill-rule="nonzero"></path>
    </g>
</svg>