<?xml version="1.0" encoding="UTF-8"?>
<svg width="16px" height="16px" viewBox="0 0 16 16" version="1.1" xmlns="http://www.w3.org/2000/svg" xmlns:xlink="http://www.w3.org/1999/xlink">
    <!-- Generator: Sketch 62 (91390) - https://sketch.com -->
    <title>slack-connector-icon</title>
    <desc>Created with Sketch.</desc>
    <g id="Page-1" stroke="none" stroke-width="1" fill="none" fill-rule="evenodd">
        <g id="Group-6" transform="translate(2.000000, 2.000000)" fill-rule="nonzero">
            <path d="M4.41188304,6.31366862 C3.71723977,6.31366862 3.15384016,6.87706823 3.15384016,7.5717115 L3.15384016,10.7185653 C3.15384016,11.4132086 3.71723977,11.9766082 4.41188304,11.9766082 C5.10652632,11.9766082 5.66992593,11.4132086 5.66992593,10.7185653 L5.66992593,7.5717115 C5.6694269,6.87706823 5.10602729,6.31366862 4.41188304,6.31366862 Z" id="Path" fill="#E91E63"></path>
            <path d="M0.0084834308,7.5717115 C0.0084834308,8.2668538 0.572382066,8.83075244 1.26752437,8.83075244 C1.96266667,8.83075244 2.5265653,8.2668538 2.5265653,7.5717115 L2.5265653,6.31267057 L1.26852242,6.31267057 C1.26802339,6.31267057 1.26802339,6.31267057 1.26752437,6.31267057 C0.572382066,6.31267057 0.0084834308,6.8765692 0.0084834308,7.5717115 Z" id="Path" fill="#E91E63"></path>
            <path d="M4.41338012,0 C4.41288109,0 4.41238207,0 4.41188304,0 C3.71674074,0 3.15284211,0.563898635 3.15284211,1.25904094 C3.15284211,1.95418324 3.71674074,2.51808187 4.41188304,2.51808187 L5.66992593,2.51808187 L5.66992593,1.25904094 C5.66992593,1.25854191 5.66992593,1.25754386 5.66992593,1.25654581 C5.6694269,0.562401559 5.10702534,0 4.41338012,0 Z" id="Path" fill="#00BCD4"></path>
            <path d="M1.25904094,5.67441715 L4.41188304,5.67441715 C5.10702534,5.67441715 5.67092398,5.11051852 5.67092398,4.41537622 C5.67092398,3.72023392 5.10702534,3.15633528 4.41188304,3.15633528 L1.25904094,3.15633528 C0.563898635,3.15633528 3.90798505e-14,3.72023392 3.90798505e-14,4.41537622 C3.90798505e-14,5.11051852 0.563898635,5.67441715 1.25904094,5.67441715 Z" id="Path" fill="#00BCD4"></path>
            <path d="M10.7065887,3.15583626 C10.0124444,3.15583626 9.45004288,3.71823782 9.45004288,4.41238207 L9.45004288,4.41487719 L9.45004288,5.67391813 L10.7080858,5.67391813 C11.4032281,5.67391813 11.9671267,5.11001949 11.9671267,4.41487719 C11.9671267,3.71973489 11.4032281,3.15583626 10.7080858,3.15583626 C10.7075867,3.15583626 10.7070877,3.15583626 10.7065887,3.15583626 L10.7065887,3.15583626 Z" id="Path" fill="#4CAF50"></path>
            <path d="M6.30718129,1.25904094 L6.30718129,4.41537622 C6.30718129,5.11001949 6.8705809,5.6734191 7.56522417,5.6734191 C8.25986745,5.6734191 8.82326706,5.11001949 8.82326706,4.41537622 L8.82326706,1.25904094 C8.82326706,0.564397661 8.25986745,0.000998050682 7.56522417,0.000998050682 C6.8705809,0.000998050682 6.30718129,0.564397661 6.30718129,1.25904094 L6.30718129,1.25904094 Z" id="Path" fill="#4CAF50"></path>
            <path d="M8.82276803,10.7175673 C8.82276803,10.022924 8.25936842,9.45952437 7.56472515,9.45952437 L6.30668226,9.45952437 L6.30668226,10.7185653 C6.30718129,11.4127096 6.87008187,11.9756101 7.56472515,11.9756101 C8.25936842,11.9756101 8.82276803,11.4122105 8.82276803,10.7175673 Z" id="Path" fill="#FF9800"></path>
            <path d="M10.7175673,6.31267057 L7.56472515,6.31267057 C6.86958285,6.31267057 6.30568421,6.8765692 6.30568421,7.5717115 C6.30568421,8.2668538 6.86958285,8.83075244 7.56472515,8.83075244 L10.7175673,8.83075244 C11.4127096,8.83075244 11.9766082,8.2668538 11.9766082,7.5717115 C11.9766082,6.8765692 11.4127096,6.31267057 10.7175673,6.31267057 L10.7175673,6.31267057 Z" id="Path" fill="#FF9800"></path>
        </g>
    </g>
</svg>