<?xml version="1.0" encoding="UTF-8"?>
<svg width="16px" height="16px" viewBox="0 0 16 16" version="1.1" xmlns="http://www.w3.org/2000/svg" xmlns:xlink="http://www.w3.org/1999/xlink">
    <!-- Generator: Sketch 63.1 (92452) - https://sketch.com -->
    <title>team-icon</title>
    <desc>Created with Sketch.</desc>
    <g id="Page-1" stroke="none" stroke-width="1" fill="none" fill-rule="evenodd">
        <path d="M8,9.666625 C8.920375,9.666625 9.666625,10.413375 9.666625,11.333375 L9.666625,11.333375 L9.666625,13 L3,13 L3,11.333375 C3,10.413 3.74625,9.666625 4.666625,9.666625 L4.666625,9.666625 Z M11.333375,7.166625 C12.25375,7.166625 13,7.913375 13,8.833375 L13,8.833375 L13,10.5 L10.354375,10.5 C10.102875,9.792 9.5405,9.2345 8.833375,8.9835 L8.833375,8.9835 L8.833375,7.166625 Z M6.333375,5.5 C7.25375,5.5 8,6.24625 8,7.166625 C8,8.087125 7.25375,8.83325 6.333375,8.83325 C5.413,8.83325 4.666625,8.087125 4.666625,7.166625 C4.666625,6.24625 5.413,5.5 6.333375,5.5 Z M9.666625,3 C10.587,3 11.333375,3.74625 11.333375,4.666625 C11.333375,5.587 10.587,6.33325 9.666625,6.33325 C8.74625,6.33325 8,5.587 8,4.666625 C8,3.74625 8.74625,3 9.666625,3 Z" id="Combined-Shape" fill="#FFFFFF" fill-rule="nonzero"></path>
    </g>
</svg>