<?xml version="1.0" encoding="UTF-8"?>
<svg width="16px" height="16px" viewBox="0 0 16 16" version="1.1" xmlns="http://www.w3.org/2000/svg" xmlns:xlink="http://www.w3.org/1999/xlink">
    <!-- Generator: Sketch 62 (91390) - https://sketch.com -->
    <title>teams-connector-icon</title>
    <desc>Created with Sketch.</desc>
    <g id="Page-1" stroke="none" stroke-width="1" fill="none" fill-rule="evenodd">
        <g id="microsoft-teams-logo@logotyp.us" transform="translate(2.000000, 2.000000)">
            <circle id="Oval" fill="#7B83EB" cx="6.375" cy="2.25" r="1.75014545"></circle>
            <path d="M6.25014545,2.625 L4.66538182,2.625 L4.67323636,2.65985455 L4.674,2.66285455 L4.68185455,2.69514545 C4.91978182,3.597 5.83838182,4.15881818 6.74961818,3.95961818 L6.74961818,3.12485455 C6.7488,2.85098182 6.52369091,2.62581818 6.24976364,2.625 L6.25014545,2.625 Z" id="Path" fill-opacity="0.2" fill="#000000" fill-rule="nonzero"></path>
            <circle id="Oval" fill="#5059C9" cx="10.3125273" cy="2.81252727" r="1.31252727"></circle>
            <g id="Group" transform="translate(0.000000, 3.000000)">
                <path d="M11.4375273,1.5 L8.48961818,1.5 C8.35816364,1.5 8.25,1.60816364 8.25,1.73961818 L8.25,4.78085455 C8.23309091,5.68467273 8.85654545,6.48403636 9.73723636,6.68776364 C9.86405455,6.71438182 9.99321818,6.72774545 10.1227636,6.72774545 C11.1521455,6.72774545 11.9993455,5.88114545 12,4.85176364 L12,2.06247273 C12,1.75390909 11.7460909,1.5 11.4375273,1.5 L11.4375273,1.5 Z" id="Path" fill="#5059C9"></path>
                <path d="M9.375,2.06252727 L9.375,5.62669091 C9.375,7.2714 8.02161818,8.62478182 6.37685455,8.62478182 C5.30678182,8.62478182 4.31481818,8.05189091 3.78,7.125 C3.70783636,7.00505455 3.64516364,6.87965455 3.59247273,6.75 C3.54338182,6.62770909 3.50209091,6.50247273 3.46876364,6.375 C3.40690909,6.12976364 3.37543636,5.87787273 3.375,5.625 L3.375,2.06247273 C3.375,2.06225455 3.375,2.06198182 3.375,2.06176364 C3.375,1.75358182 3.62858182,1.5 3.93676364,1.5 L8.81323636,1.5 C9.12141818,1.5 9.375,1.75358182 9.375,2.06176364 L9.375,2.06252727 Z" id="Path" fill="#7B83EB"></path>
                <path d="M6.75,1.5 L6.75,6.25123636 C6.75,6.48332727 6.5868,6.68574545 6.36,6.735 C6.32470909,6.74547273 6.28805455,6.75054545 6.25123636,6.75003974 L3.59247273,6.75003974 C3.54338182,6.62770909 3.50209091,6.50247273 3.46876364,6.375 C3.40690909,6.12976364 3.37543636,5.87787273 3.375,5.625 L3.375,2.06247273 C3.375,2.06225455 3.375,2.06198182 3.375,2.06176364 C3.375,1.75358182 3.62858182,1.5 3.93676364,1.5 L6.75,1.5 Z" id="Path" fill-opacity="0.2" fill="#000000"></path>
                <path d="M0.499854545,0 L5.49976364,0 C5.77396364,0 5.99961818,0.225654545 5.99961818,0.499854545 L5.99961818,5.49976364 C5.99961818,5.77396364 5.77396364,5.99961818 5.49976364,5.99961818 L0.499854545,5.99961818 C0.225654545,5.99961818 0,5.77396364 0,5.49976364 L0,0.499854545 C0,0.225654545 0.225654545,0 0.499854545,0 Z" id="Path" fill="#4B53BC"></path>
                <polygon id="Path" fill="#FFFFFF" points="4.49252727 1.86561818 3.37161818 1.86561818 3.37161818 4.87314545 2.63514545 4.87314545 2.63514545 1.86561818 1.50785455 1.86561818 1.50785455 1.12685455 4.49252727 1.12685455"></polygon>
            </g>
        </g>
    </g>
</svg>